<svg xmlns="http://www.w3.org/2000/svg" version="1.1" xmlns:xlink="http://www.w3.org/1999/xlink" xmlns:svgjs="http://svgjs.dev/svgjs" viewBox="0 0 2400 800" opacity="0.36"><defs><linearGradient x1="50%" y1="0%" x2="50%" y2="100%" id="sssurf-grad"><stop stop-color="hsl(208, 77%, 50%)" stop-opacity="1" offset="0%"></stop><stop stop-color="hsl(208, 74%, 93%)" stop-opacity="1" offset="100%"></stop></linearGradient></defs><g fill="url(#sssurf-grad)" transform="matrix(1,0,0,1,10.303955078125,128.53646087646484)"><path d="M-10,10C23.333333333333336,12.708333333333332,85.41666666666667,29.875,150,23C214.58333333333331,16.125,237.5,-25.5,300,-23C362.5,-20.5,387.5,44.791666666666664,450,35C512.5,25.208333333333336,537.5,-73.125,600,-70C662.5,-66.875,687.5,47.916666666666664,750,50C812.5,52.083333333333336,837.5,-69.79166666666667,900,-60C962.5,-50.208333333333336,987.5,98.875,1050,97C1112.5,95.125,1137.5,-62.333333333333336,1200,-69C1262.5,-75.66666666666667,1287.5,48.95833333333333,1350,65C1412.5,81.04166666666667,1437.5,-0.3333333333333339,1500,8C1562.5,16.333333333333336,1587.5,105,1650,105C1712.5,105,1737.5,15.291666666666666,1800,8C1862.5,0.7083333333333339,1887.5,74.58333333333333,1950,70C2012.5,65.41666666666667,2037.5,-10.875,2100,-14C2162.5,-17.125,2187.5,60.208333333333336,2250,55C2312.5,49.791666666666664,2316.6666666666665,-110.875,2400,-39C2483.3333333333335,32.875,3254.1666666666665,204.375,2650,400C2045.8333333333335,595.625,156.25,795.8333333333334,-500,900" transform="matrix(1,0,0,1,0,57)" opacity="0.05"></path><path d="M-10,10C23.333333333333336,12.708333333333332,85.41666666666667,29.875,150,23C214.58333333333331,16.125,237.5,-25.5,300,-23C362.5,-20.5,387.5,44.791666666666664,450,35C512.5,25.208333333333336,537.5,-73.125,600,-70C662.5,-66.875,687.5,47.916666666666664,750,50C812.5,52.083333333333336,837.5,-69.79166666666667,900,-60C962.5,-50.208333333333336,987.5,98.875,1050,97C1112.5,95.125,1137.5,-62.333333333333336,1200,-69C1262.5,-75.66666666666667,1287.5,48.95833333333333,1350,65C1412.5,81.04166666666667,1437.5,-0.3333333333333339,1500,8C1562.5,16.333333333333336,1587.5,105,1650,105C1712.5,105,1737.5,15.291666666666666,1800,8C1862.5,0.7083333333333339,1887.5,74.58333333333333,1950,70C2012.5,65.41666666666667,2037.5,-10.875,2100,-14C2162.5,-17.125,2187.5,60.208333333333336,2250,55C2312.5,49.791666666666664,2316.6666666666665,-110.875,2400,-39C2483.3333333333335,32.875,3254.1666666666665,204.375,2650,400C2045.8333333333335,595.625,156.25,795.8333333333334,-500,900" transform="matrix(1,0,0,1,0,114)" opacity="0.19"></path><path d="M-10,10C23.333333333333336,12.708333333333332,85.41666666666667,29.875,150,23C214.58333333333331,16.125,237.5,-25.5,300,-23C362.5,-20.5,387.5,44.791666666666664,450,35C512.5,25.208333333333336,537.5,-73.125,600,-70C662.5,-66.875,687.5,47.916666666666664,750,50C812.5,52.083333333333336,837.5,-69.79166666666667,900,-60C962.5,-50.208333333333336,987.5,98.875,1050,97C1112.5,95.125,1137.5,-62.333333333333336,1200,-69C1262.5,-75.66666666666667,1287.5,48.95833333333333,1350,65C1412.5,81.04166666666667,1437.5,-0.3333333333333339,1500,8C1562.5,16.333333333333336,1587.5,105,1650,105C1712.5,105,1737.5,15.291666666666666,1800,8C1862.5,0.7083333333333339,1887.5,74.58333333333333,1950,70C2012.5,65.41666666666667,2037.5,-10.875,2100,-14C2162.5,-17.125,2187.5,60.208333333333336,2250,55C2312.5,49.791666666666664,2316.6666666666665,-110.875,2400,-39C2483.3333333333335,32.875,3254.1666666666665,204.375,2650,400C2045.8333333333335,595.625,156.25,795.8333333333334,-500,900" transform="matrix(1,0,0,1,0,171)" opacity="0.32"></path><path d="M-10,10C23.333333333333336,12.708333333333332,85.41666666666667,29.875,150,23C214.58333333333331,16.125,237.5,-25.5,300,-23C362.5,-20.5,387.5,44.791666666666664,450,35C512.5,25.208333333333336,537.5,-73.125,600,-70C662.5,-66.875,687.5,47.916666666666664,750,50C812.5,52.083333333333336,837.5,-69.79166666666667,900,-60C962.5,-50.208333333333336,987.5,98.875,1050,97C1112.5,95.125,1137.5,-62.333333333333336,1200,-69C1262.5,-75.66666666666667,1287.5,48.95833333333333,1350,65C1412.5,81.04166666666667,1437.5,-0.3333333333333339,1500,8C1562.5,16.333333333333336,1587.5,105,1650,105C1712.5,105,1737.5,15.291666666666666,1800,8C1862.5,0.7083333333333339,1887.5,74.58333333333333,1950,70C2012.5,65.41666666666667,2037.5,-10.875,2100,-14C2162.5,-17.125,2187.5,60.208333333333336,2250,55C2312.5,49.791666666666664,2316.6666666666665,-110.875,2400,-39C2483.3333333333335,32.875,3254.1666666666665,204.375,2650,400C2045.8333333333335,595.625,156.25,795.8333333333334,-500,900" transform="matrix(1,0,0,1,0,228)" opacity="0.46"></path><path d="M-10,10C23.333333333333336,12.708333333333332,85.41666666666667,29.875,150,23C214.58333333333331,16.125,237.5,-25.5,300,-23C362.5,-20.5,387.5,44.791666666666664,450,35C512.5,25.208333333333336,537.5,-73.125,600,-70C662.5,-66.875,687.5,47.916666666666664,750,50C812.5,52.083333333333336,837.5,-69.79166666666667,900,-60C962.5,-50.208333333333336,987.5,98.875,1050,97C1112.5,95.125,1137.5,-62.333333333333336,1200,-69C1262.5,-75.66666666666667,1287.5,48.95833333333333,1350,65C1412.5,81.04166666666667,1437.5,-0.3333333333333339,1500,8C1562.5,16.333333333333336,1587.5,105,1650,105C1712.5,105,1737.5,15.291666666666666,1800,8C1862.5,0.7083333333333339,1887.5,74.58333333333333,1950,70C2012.5,65.41666666666667,2037.5,-10.875,2100,-14C2162.5,-17.125,2187.5,60.208333333333336,2250,55C2312.5,49.791666666666664,2316.6666666666665,-110.875,2400,-39C2483.3333333333335,32.875,3254.1666666666665,204.375,2650,400C2045.8333333333335,595.625,156.25,795.8333333333334,-500,900" transform="matrix(1,0,0,1,0,285)" opacity="0.59"></path><path d="M-10,10C23.333333333333336,12.708333333333332,85.41666666666667,29.875,150,23C214.58333333333331,16.125,237.5,-25.5,300,-23C362.5,-20.5,387.5,44.791666666666664,450,35C512.5,25.208333333333336,537.5,-73.125,600,-70C662.5,-66.875,687.5,47.916666666666664,750,50C812.5,52.083333333333336,837.5,-69.79166666666667,900,-60C962.5,-50.208333333333336,987.5,98.875,1050,97C1112.5,95.125,1137.5,-62.333333333333336,1200,-69C1262.5,-75.66666666666667,1287.5,48.95833333333333,1350,65C1412.5,81.04166666666667,1437.5,-0.3333333333333339,1500,8C1562.5,16.333333333333336,1587.5,105,1650,105C1712.5,105,1737.5,15.291666666666666,1800,8C1862.5,0.7083333333333339,1887.5,74.58333333333333,1950,70C2012.5,65.41666666666667,2037.5,-10.875,2100,-14C2162.5,-17.125,2187.5,60.208333333333336,2250,55C2312.5,49.791666666666664,2316.6666666666665,-110.875,2400,-39C2483.3333333333335,32.875,3254.1666666666665,204.375,2650,400C2045.8333333333335,595.625,156.25,795.8333333333334,-500,900" transform="matrix(1,0,0,1,0,342)" opacity="0.73"></path><path d="M-10,10C23.333333333333336,12.708333333333332,85.41666666666667,29.875,150,23C214.58333333333331,16.125,237.5,-25.5,300,-23C362.5,-20.5,387.5,44.791666666666664,450,35C512.5,25.208333333333336,537.5,-73.125,600,-70C662.5,-66.875,687.5,47.916666666666664,750,50C812.5,52.083333333333336,837.5,-69.79166666666667,900,-60C962.5,-50.208333333333336,987.5,98.875,1050,97C1112.5,95.125,1137.5,-62.333333333333336,1200,-69C1262.5,-75.66666666666667,1287.5,48.95833333333333,1350,65C1412.5,81.04166666666667,1437.5,-0.3333333333333339,1500,8C1562.5,16.333333333333336,1587.5,105,1650,105C1712.5,105,1737.5,15.291666666666666,1800,8C1862.5,0.7083333333333339,1887.5,74.58333333333333,1950,70C2012.5,65.41666666666667,2037.5,-10.875,2100,-14C2162.5,-17.125,2187.5,60.208333333333336,2250,55C2312.5,49.791666666666664,2316.6666666666665,-110.875,2400,-39C2483.3333333333335,32.875,3254.1666666666665,204.375,2650,400C2045.8333333333335,595.625,156.25,795.8333333333334,-500,900" transform="matrix(1,0,0,1,0,399)" opacity="0.86"></path><path d="M-10,10C23.333333333333336,12.708333333333332,85.41666666666667,29.875,150,23C214.58333333333331,16.125,237.5,-25.5,300,-23C362.5,-20.5,387.5,44.791666666666664,450,35C512.5,25.208333333333336,537.5,-73.125,600,-70C662.5,-66.875,687.5,47.916666666666664,750,50C812.5,52.083333333333336,837.5,-69.79166666666667,900,-60C962.5,-50.208333333333336,987.5,98.875,1050,97C1112.5,95.125,1137.5,-62.333333333333336,1200,-69C1262.5,-75.66666666666667,1287.5,48.95833333333333,1350,65C1412.5,81.04166666666667,1437.5,-0.3333333333333339,1500,8C1562.5,16.333333333333336,1587.5,105,1650,105C1712.5,105,1737.5,15.291666666666666,1800,8C1862.5,0.7083333333333339,1887.5,74.58333333333333,1950,70C2012.5,65.41666666666667,2037.5,-10.875,2100,-14C2162.5,-17.125,2187.5,60.208333333333336,2250,55C2312.5,49.791666666666664,2316.6666666666665,-110.875,2400,-39C2483.3333333333335,32.875,3254.1666666666665,204.375,2650,400C2045.8333333333335,595.625,156.25,795.8333333333334,-500,900" transform="matrix(1,0,0,1,0,456)" opacity="1.00"></path></g></svg>